<?xml version="1.0" standalone="no"?>
<!DOCTYPE svg PUBLIC "-//W3C//DTD SVG 20010904//EN"
 "http://www.w3.org/TR/2001/REC-SVG-20010904/DTD/svg10.dtd">
<svg version="1.0" xmlns="http://www.w3.org/2000/svg"
 width="611.000000pt" height="611.000000pt" viewBox="0 0 611.000000 611.000000"
 preserveAspectRatio="xMidYMid meet">
<metadata>
Created by potrace 1.11, written by Peter Selinger 2001-2013
</metadata>
<g transform="translate(0.000000,611.000000) scale(0.100000,-0.100000)"
fill="#000000" stroke="none">
<path d="M1385 5910 c-373 -60 -577 -230 -622 -522 -7 -47 -7 -326 1 -1498 3
-426 8 -1164 12 -1640 8 -1212 11 -1511 18 -1543 24 -105 93 -219 182 -295 82
-70 266 -155 389 -178 22 -4 45 -8 51 -9 6 -2 35 -6 66 -9 31 -4 69 -11 86
-15 30 -9 118 -7 217 4 28 3 178 30 335 60 157 30 301 57 320 60 19 3 53 10
75 15 22 5 56 12 75 15 19 3 116 22 215 41 99 20 191 38 205 40 14 2 48 9 75
14 28 6 61 12 75 15 14 3 72 14 129 26 57 11 116 23 130 25 14 2 46 9 71 14
73 16 562 109 605 116 22 3 43 8 46 10 3 2 21 6 40 9 19 3 68 12 109 20 41 8
86 17 100 19 14 2 86 16 160 31 74 15 146 29 160 32 14 2 70 13 125 24 55 11
116 23 135 26 56 8 179 51 229 81 68 40 129 105 159 169 31 69 28 -91 37 1643
12 2273 12 2177 -9 2240 -42 123 -119 215 -222 261 -55 25 -322 86 -588 135
-16 2 -32 6 -35 8 -3 2 -24 7 -46 10 -22 4 -96 18 -165 32 -69 14 -134 28
-145 30 -11 2 -43 8 -71 14 -28 6 -61 13 -75 15 -13 3 -80 16 -149 31 -69 14
-136 28 -150 30 -33 6 -195 39 -340 69 -63 14 -130 27 -147 30 -18 3 -61 12
-96 20 -34 8 -80 17 -102 20 -22 3 -46 8 -54 11 -7 2 -48 11 -90 20 -42 8
-141 29 -221 46 -170 35 -166 35 -216 42 -22 4 -55 11 -74 16 -19 5 -114 25
-210 44 -96 20 -231 47 -300 62 -163 33 -349 39 -505 14z"/>
</g>
</svg>
